<svg width="136" height="42" viewBox="0 0 136 42" fill="none" xmlns="http://www.w3.org/2000/svg">
<path d="M41.6 29L50.52 29L50.52 26.46L44.32 26.46L44.32 14.6L41.6 14.6L41.6 29ZM56.5803 29.3C57.6603 29.3 58.6103 29.06 59.4303 28.58C60.257 28.0933 60.9003 27.4233 61.3603 26.57C61.827 25.71 62.0603 24.72 62.0603 23.6C62.0603 22.4867 61.8303 21.5033 61.3703 20.65C60.9103 19.79 60.267 19.1167 59.4403 18.63C58.6203 18.1433 57.667 17.9 56.5803 17.9C55.5136 17.9 54.5703 18.14 53.7503 18.62C52.9303 19.1 52.287 19.77 51.8203 20.63C51.3536 21.4833 51.1203 22.4733 51.1203 23.6C51.1203 24.7133 51.347 25.7 51.8003 26.56C52.2603 27.4133 52.9003 28.0833 53.7203 28.57C54.5403 29.0567 55.4936 29.3 56.5803 29.3ZM56.5803 26.76C55.7336 26.76 55.0903 26.4767 54.6503 25.91C54.217 25.3367 54.0003 24.5667 54.0003 23.6C54.0003 22.66 54.207 21.9 54.6203 21.32C55.0403 20.7333 55.6936 20.44 56.5803 20.44C57.4403 20.44 58.087 20.7267 58.5203 21.3C58.9603 21.8733 59.1803 22.64 59.1803 23.6C59.1803 24.5267 58.9636 25.2867 58.5303 25.88C58.1036 26.4667 57.4536 26.76 56.5803 26.76ZM68.1394 29.3C68.646 29.3 69.1127 29.24 69.5394 29.12C69.9727 29 70.366 28.83 70.7194 28.61L70.7194 29.7C70.7327 30.1 70.6294 30.4333 70.4094 30.7C70.196 30.9733 69.9094 31.1767 69.5494 31.31C69.1894 31.45 68.806 31.52 68.3994 31.52C68.0194 31.52 67.666 31.4367 67.3394 31.27C67.0194 31.1033 66.7727 30.86 66.5994 30.54L64.0794 31.76C64.4927 32.46 65.0827 33.0233 65.8494 33.45C66.616 33.8833 67.4594 34.1 68.3794 34.1C69.1727 34.1 69.9094 33.9933 70.5894 33.78C71.2694 33.5733 71.8427 33.2567 72.3094 32.83C72.7827 32.4033 73.106 31.86 73.2794 31.2C73.3394 30.9667 73.3794 30.73 73.3994 30.49C73.426 30.2567 73.4394 30.0067 73.4394 29.74L73.4394 18.2L71.0594 18.2L71.0594 18.8C70.6927 18.5133 70.276 18.2933 69.8094 18.14C69.3494 17.98 68.8394 17.9 68.2794 17.9C67.246 17.9 66.346 18.1467 65.5794 18.64C64.8127 19.1333 64.216 19.81 63.7894 20.67C63.3694 21.5233 63.1594 22.5 63.1594 23.6C63.1594 24.68 63.366 25.65 63.7794 26.51C64.1994 27.37 64.7827 28.05 65.5294 28.55C66.276 29.05 67.146 29.3 68.1394 29.3ZM68.5794 26.88C67.9927 26.88 67.5127 26.7333 67.1394 26.44C66.766 26.1467 66.4894 25.7533 66.3094 25.26C66.1294 24.76 66.0394 24.2067 66.0394 23.6C66.0394 23 66.1327 22.4533 66.3194 21.96C66.506 21.46 66.7927 21.0633 67.1794 20.77C67.5727 20.47 68.0727 20.32 68.6794 20.32C69.5327 20.32 70.1427 20.6233 70.5094 21.23C70.876 21.83 71.0594 22.62 71.0594 23.6C71.0594 24.58 70.8727 25.3733 70.4994 25.98C70.1327 26.58 69.4927 26.88 68.5794 26.88ZM80.5998 29.3C81.6798 29.3 82.6298 29.06 83.4498 28.58C84.2765 28.0933 84.9198 27.4233 85.3798 26.57C85.8465 25.71 86.0798 24.72 86.0798 23.6C86.0798 22.4867 85.8498 21.5033 85.3898 20.65C84.9298 19.79 84.2865 19.1167 83.4598 18.63C82.6398 18.1433 81.6865 17.9 80.5998 17.9C79.5332 17.9 78.5898 18.14 77.7698 18.62C76.9498 19.1 76.3065 19.77 75.8398 20.63C75.3732 21.4833 75.1398 22.4733 75.1398 23.6C75.1398 24.7133 75.3665 25.7 75.8198 26.56C76.2798 27.4133 76.9198 28.0833 77.7398 28.57C78.5598 29.0567 79.5132 29.3 80.5998 29.3ZM80.5998 26.76C79.7532 26.76 79.1098 26.4767 78.6698 25.91C78.2365 25.3367 78.0198 24.5667 78.0198 23.6C78.0198 22.66 78.2265 21.9 78.6398 21.32C79.0598 20.7333 79.7132 20.44 80.5998 20.44C81.4598 20.44 82.1065 20.7267 82.5398 21.3C82.9798 21.8733 83.1998 22.64 83.1998 23.6C83.1998 24.5267 82.9832 25.2867 82.5498 25.88C82.1232 26.4667 81.4732 26.76 80.5998 26.76ZM91.2828 29L94.0028 29L94.0028 23.06L100.443 23.06L100.443 29L103.163 29L103.163 14.6L100.443 14.6L100.443 20.52L94.0028 20.52L94.0028 14.6L91.2828 14.6L91.2828 29ZM110.49 29.3C111.53 29.3 112.487 29.0267 113.36 28.48C114.24 27.9333 114.884 27.1667 115.29 26.18L112.57 25.4C112.157 26.3067 111.41 26.76 110.33 26.76C109.59 26.76 109.007 26.5533 108.58 26.14C108.16 25.7267 107.9 25.1333 107.8 24.36L115.38 24.36C115.494 23.0533 115.36 21.9167 114.98 20.95C114.6 19.9833 114.014 19.2333 113.22 18.7C112.427 18.1667 111.464 17.9 110.33 17.9C109.264 17.9 108.32 18.1433 107.5 18.63C106.68 19.11 106.037 19.7867 105.57 20.66C105.104 21.5333 104.87 22.56 104.87 23.74C104.87 24.82 105.107 25.78 105.58 26.62C106.06 27.4533 106.72 28.11 107.56 28.59C108.407 29.0633 109.384 29.3 110.49 29.3ZM110.45 20.26C111.104 20.26 111.604 20.4233 111.95 20.75C112.304 21.0767 112.53 21.6067 112.63 22.34L107.87 22.34C108.157 20.9533 109.017 20.26 110.45 20.26ZM117.138 29L119.878 29L119.878 23.48C119.878 22.2267 120.372 21.3733 121.358 20.92C121.678 20.7667 122.035 20.6767 122.428 20.65C122.828 20.6167 123.178 20.6467 123.478 20.74L123.478 18.2C122.992 18.14 122.505 18.1533 122.018 18.24C121.532 18.32 121.092 18.48 120.698 18.72C120.445 18.8667 120.222 19.0433 120.028 19.25C119.842 19.4567 119.678 19.6867 119.538 19.94L119.538 18.2L117.138 18.2L117.138 29ZM129.705 29.3C130.745 29.3 131.702 29.0267 132.575 28.48C133.455 27.9333 134.098 27.1667 134.505 26.18L131.785 25.4C131.372 26.3067 130.625 26.76 129.545 26.76C128.805 26.76 128.222 26.5533 127.795 26.14C127.375 25.7267 127.115 25.1333 127.015 24.36L134.595 24.36C134.708 23.0533 134.575 21.9167 134.195 20.95C133.815 19.9833 133.228 19.2333 132.435 18.7C131.642 18.1667 130.678 17.9 129.545 17.9C128.478 17.9 127.535 18.1433 126.715 18.63C125.895 19.11 125.252 19.7867 124.785 20.66C124.318 21.5333 124.085 22.56 124.085 23.74C124.085 24.82 124.322 25.78 124.795 26.62C125.275 27.4533 125.935 28.11 126.775 28.59C127.622 29.0633 128.598 29.3 129.705 29.3ZM129.665 20.26C130.318 20.26 130.818 20.4233 131.165 20.75C131.518 21.0767 131.745 21.6067 131.845 22.34L127.085 22.34C127.372 20.9533 128.232 20.26 129.665 20.26Z" fill="#DEDEDE"/>
<path d="M11.3938 35.4538L17.7277 17.2308H22.6108L14.0123 42H8.81077L0.212308 17.2308H5.09538L11.3938 35.4538Z" fill="#DEDEDE"/>
<path d="M17.6062 7.39234L11.2723 25.6154L6.38923 25.6154L14.9877 0.84619L20.1892 0.846191L28.7877 25.6154L23.9046 25.6154L17.6062 7.39234Z" fill="#DEDEDE"/>
</svg>
